PathFileType	4	(X/Y/Z)	F:\MotionCapture\20160217\3\Generated_files\P_3_test01-Dynamic.trc
DataRate	CameraRate	NumFrames	NumMarkers	Units	OrigDataRate	OrigDataStartFrame	OrigNumFrames
120.00	120.00	      4	39	mm	120.00	1474	      2357
Frame#	Time	Top.Head			Front.Head			Rear.Head			R.Shoulder			R.Offset			R.Elbow			R.Wrist			L.Shoulder			L.Elbow			L.Wrist			R.ASIS			L.ASIS			V.Sacral			R.Thigh			R.Knee			R.Shank			R.Ankle			R.Heel			R.Toe			L.Thigh			L.Knee			L.Shank			L.Ankle			L.Heel			L.Toe			R1			R2			R3			R4			R5			R6			R7			L1			L2			L3			L4			L5			L6			L7			V_Mid_ASIS			V_Pelvis_Origin			V_R.Hip_JC			V_L.Hip_JC			V_R.Knee_JC			V_L.Knee_JC			V_R.Ankle_JC			V_L.Ankle_JC			V_Mid_Hip			V_Mid_Shoulder			V_R.Hand			V_L.Hand			V_R.Toe_Offset_Static			V_L.Toe_Offset_Static			V_R.Toe_Offset			V_L.Toe_Offset			
		X1	Y1	Z1	X2	Y2	Z2	X3	Y3	Z3	X4	Y4	Z4	X5	Y5	Z5	X6	Y6	Z6	X7	Y7	Z7	X8	Y8	Z8	X9	Y9	Z9	X10	Y10	Z10	X11	Y11	Z11	X12	Y12	Z12	X13	Y13	Z13	X14	Y14	Z14	X15	Y15	Z15	X16	Y16	Z16	X17	Y17	Z17	X18	Y18	Z18	X19	Y19	Z19	X20	Y20	Z20	X21	Y21	Z21	X22	Y22	Z22	X23	Y23	Z23	X24	Y24	Z24	X25	Y25	Z25	X26	Y26	Z26	X27	Y27	Z27	X28	Y28	Z28	X29	Y29	Z29	X30	Y30	Z30	X31	Y31	Z31	X32	Y32	Z32	X33	Y33	Z33	X34	Y34	Z34	X35	Y35	Z35	X36	Y36	Z36	X37	Y37	Z37	X38	Y38	Z38	X39	Y39	Z39	

1474	12.275	-146.46655	-18.75199	1887.28601	-49.36083	-11.46676	1788.07825	-264.56479	-18.33728	1836.35522				-384.96979	45.12133	1476.20081	2.70447	-355.36801	1575.73865	-6.21678	-236.14194	1802.94385				-33.16838	351.74643	1522.21765	52.08523	247.69107	1742.78845	-223.21825	-133.00075	1133.35596	-210.85139	142.53508	1144.43115	-438.17731	16.18835	1158.27148	-222.59331	-138.39262	745.63324	-314.84506	-178.76004	644.55371	-280.41248	-136.19479	405.38348	-360.98285	-195.45499	245.14252	-399.04306	-117.54337	258.18076	-260.03479	-189.89554	115.18007	-207.19321	139.62053	793.00116	-307.64828	198.25668	651.18536	-267.55835	147.26340	502.78052	-347.83994	216.41408	239.42880	-382.83035	148.96425	260.74091	-247.49829	219.58696	115.65326	-223.26830	-169.98883	76.04054	-236.93564	-160.15376	124.87034	-290.79547	-122.07567	211.83153	-353.18549	-100.59613	243.95160	-390.40671	-165.27812	234.75552	-344.79556	-201.79665	173.51599	-303.26483	-215.13768	120.11932	-211.40321	194.79431	86.41621	-223.01945	188.57402	125.01730	-272.71841	143.82076	209.29279	-338.56357	127.76150	249.02361	-373.70392	190.71153	235.81149	-330.41205	225.82927	175.78732	-290.32791	239.37852	126.40902																																																	-246.26389	-179.00400	1634.15796	-250.46797	153.63417	1636.77856	
1475	12.283	-143.91312	-17.81547	1904.12756	-48.01015	-10.65729	1804.06628	-262.75763	-17.08322	1854.83655				-384.74689	45.04755	1495.38745	-1.00746	-359.23178	1595.20630	-17.56800	-238.59093	1821.28528				-36.82663	355.33603	1538.01318	43.60245	250.64157	1759.60669	-220.87645	-131.96071	1153.43591	-211.08102	140.30713	1162.47913	-435.59250	15.47713	1181.19971	-216.45818	-140.53821	769.07092	-307.00134	-179.15227	662.01489	-281.55414	-133.88728	421.16864	-366.01135	-190.51517	262.91776	-402.48657	-113.77994	281.61673	-271.91647	-179.49922	128.25815	-203.77551	141.22633	816.76276	-304.81387	199.58334	668.25763	-266.22647	149.02373	519.87177	-352.83368	215.53690	258.04605	-385.91656	147.30315	281.51468	-257.51813	216.30559	129.71794	-242.75168	-162.64508	87.37143	-249.97502	-152.45518	136.10791	-298.22449	-115.06080	228.82492	-359.12973	-95.95483	263.32697	-396.38492	-160.23326	255.25584	-352.98578	-194.66460	191.88005	-314.77280	-206.61946	135.01401	-226.74800	195.09102	98.04854	-234.08386	189.14923	137.97389	-277.53598	142.17842	225.06822	-342.84482	126.30964	268.33725	-380.78207	191.13379	259.01138	-336.25720	224.38712	195.40466	-298.37949	238.06491	143.42067																																																	-248.42801	-178.42747	1652.86011	-253.39561	155.91484	1654.08032	
1476	12.292	-140.95578	-16.37360	1920.82312	-46.75947	-9.80207	1819.48779	-260.79752	-15.42901	1872.79089				-385.11328	44.78258	1513.98486	-3.76735	-363.22000	1613.88806	-28.11553	-241.36331	1838.28418				-40.46963	358.84000	1552.77356	37.01829	254.46413	1775.47290	-220.04124	-131.81131	1171.71521	-211.81512	138.35396	1179.06494	-434.03198	15.21156	1202.76819	-212.85631	-144.85210	793.73529	-302.55121	-180.47223	674.59290	-282.59833	-131.07852	436.93301	-371.92508	-184.77187	280.34482	-406.59399	-110.15691	303.00885	-281.66174	-168.64333	142.40826	-199.96021	143.68436	839.73712	-299.75037	201.67729	683.23584	-265.21158	149.67221	536.10773	-359.54688	214.08682	276.68634	-391.37500	145.42656	301.18756	-266.66470	211.00943	144.23828	-251.62360	-148.36226	102.87128	-258.32324	-140.99535	151.89691	-305.43057	-108.42231	246.16779	-364.91547	-91.00486	284.08469	-402.48868	-154.78905	274.19608	-360.58585	-186.84015	208.88223	-323.09021	-196.58000	150.38239	-237.10402	185.88351	112.22716	-242.12093	183.20682	154.20021	-284.63153	138.70813	242.80922	-348.77161	123.97760	287.25647	-385.66788	187.47302	276.64233	-343.56012	221.02019	212.99301	-305.98645	233.35034	160.64613																																																	-249.81369	-178.37004	1670.26892	-254.71432	157.75031	1670.22986	
1477	12.300	-137.95627	-15.15456	1936.86194	-44.98928	-8.67139	1833.84583	-257.97086	-13.93943	1890.24426	-251.30623	-178.52844	1687.36255	-385.48175	45.57564	1530.82141	-6.92437	-367.46350	1631.12756	-36.93888	-243.67386	1854.04822				-44.34773	362.76221	1566.53870	28.90523	257.21759	1789.50879	-220.41707	-132.80099	1188.91431	-213.59807	136.96733	1195.79272	-433.35001	14.83610	1221.85010	-213.10861	-149.86157	813.42450	-299.51697	-181.60150	687.52734	-284.15363	-127.96651	453.07587	-375.82681	-180.50258	297.19247	-412.84216	-104.59052	319.79092	-287.11148	-159.29831	158.18497	-196.26096	148.18971	860.58002	-295.18826	202.98105	699.15021	-264.48782	149.12029	551.54688	-365.16147	211.26607	294.42679	-397.27310	143.86079	321.17078	-274.31293	204.64047	159.99605	-257.77414	-135.79370	118.99161	-263.40421	-130.44312	169.04895	-310.40204	-102.19678	264.45737	-370.29990	-86.50764	303.01340	-406.77307	-150.33000	292.30246	-367.06693	-179.89117	224.93481	-329.32245	-187.71606	165.25737	-246.17412	178.79041	127.91675	-251.35445	175.46477	168.87469	-292.83185	134.17467	259.94958	-355.40952	121.22658	305.95016	-395.24420	188.20837	298.19189	-351.08377	216.78613	230.13547	-314.20688	228.19057	176.39320																																																	-256.37433	160.10408	1686.52441	
